<svg xmlns="http://www.w3.org/2000/svg" width="720" height="200" viewBox="0 0 720 200" role="img" aria-label="Telegram Business Bot Template">
  <rect width="720" height="200" rx="20" fill="#ffffff"/>
  <g transform="translate(36 40)"><path d="M14 24 h92 a10 10 0 0 1 10 10 v44 a10 10 0 0 1 -10 10 h-50 l-22 18 v-18 h-20 a10 10 0 0 1 -10 -10 v-44 a10 10 0 0 1 10 -10 z" fill="#1971c2"/>
<circle cx="38" cy="56" r="7" fill="#ffffff"/><circle cx="60" cy="56" r="7" fill="#ffffff"/><circle cx="82" cy="56" r="7" fill="#ffffff"/></g>
  <text x="186" y="84" font-family="ui-sans-serif, -apple-system, 'Segoe UI', Helvetica, Arial, sans-serif" font-size="38" font-weight="700" fill="#1f2328" letter-spacing="-0.5">Telegram Business</text><text x="186" y="126" font-family="ui-sans-serif, -apple-system, 'Segoe UI', Helvetica, Arial, sans-serif" font-size="38" font-weight="700" fill="#1f2328" letter-spacing="-0.5">Bot Template</text>
  <text x="187" y="160" font-family="ui-sans-serif, -apple-system, 'Segoe UI', Helvetica, Arial, sans-serif" font-size="18" fill="#6e7781">Lead capture, FAQs and alerts in a Telegram bot</text>
</svg>
